<svg width="300" height="100" viewBox="0 0 300 100" fill="none" xmlns="http://www.w3.org/2000/svg">
<path d="M125.201 43.3334H81.3805V57.1429H125.201V43.3334Z" fill="#F0B90B"/>
<path d="M74.1573 50.2381L81.1397 43.3334L88.122 50.2381L81.1397 57.1429L74.1573 50.2381Z" fill="#F0B90B"/>
<path d="M6.17816 49.9966L16.4331 39.8556L26.6882 49.9966L16.4331 60.1376L6.17816 49.9966Z" fill="#F0B90B"/>
<path d="M50.5618 73.6094L33.5603 56.7968L23.3058 66.9376L50.5618 93.8906L77.8179 66.9376L67.5631 56.7968L50.5618 73.6094Z" fill="#F0B90B"/>
<path d="M50.5618 26.3906L67.5631 43.2032L77.8178 33.0624L50.5618 6.10938L23.3057 33.0624L33.5603 43.2032L50.5618 26.3906Z" fill="#F0B90B"/>
<path d="M144.628 48.2096C147.375 50.0934 149.435 52.3401 150.734 55.1031C154.048 62.2338 154.048 69.3645 149.957 76.1882C146.778 81.5048 141.373 84.1282 135.178 84.9794C130.67 85.6074 126.042 85.5934 121.459 85.6632C114.636 85.7609 107.829 85.6911 101.006 85.6772C96.6472 85.6632 92.9598 82.3142 92.9598 78.2395C92.9299 61.9686 92.9299 45.6978 92.9598 29.427C92.9598 26.9152 92.9448 24.4173 92.9598 21.9055C93.0046 17.7053 96.468 14.3422 100.962 14.3143C109.814 14.2725 118.682 14.2725 127.55 14.3422C131.297 14.3562 134.984 15.1097 138.403 16.547C145.703 19.6449 149.33 25.0732 149.928 32.4132C150.42 38.2601 148.853 43.5209 144.628 48.2096ZM109.411 72.8391C109.829 72.881 110.143 72.9228 110.441 72.9228C115.756 72.9228 121.07 72.9647 126.385 72.8949C127.863 72.867 129.371 72.5879 130.804 72.253C132.73 71.7925 134.267 70.746 135.163 69.0435C137.85 64.006 134.939 58.5498 129.013 58.0056C124.415 57.5869 119.772 57.7404 115.144 57.6707C113.248 57.6428 111.367 57.6707 109.411 57.6707V72.8391ZM109.426 42.279C109.964 42.3069 110.411 42.3348 110.859 42.3348C115.129 42.3348 119.398 42.3627 123.668 42.3208C124.982 42.3208 126.296 42.2092 127.594 41.9999C130.535 41.4836 132.969 40.1858 133.715 37.2554C134.865 32.7621 133.64 27.878 126.878 27.3617C121.19 26.9291 115.442 27.1663 109.725 27.1105C109.65 27.1105 109.575 27.1943 109.426 27.278V42.279Z" fill="#F0B90B"/>
<path d="M291.498 48.2096C294.245 50.0934 296.305 52.3401 297.604 55.1031C300.918 62.2338 300.918 69.3645 296.827 76.1882C293.648 81.5048 288.243 84.1282 282.048 84.9794C277.54 85.6074 272.912 85.5934 268.329 85.6632C261.506 85.7609 254.699 85.6911 247.876 85.6772C243.517 85.6632 239.83 82.3142 239.83 78.2395C239.8 61.9686 239.8 45.6978 239.83 29.427C239.83 26.9152 239.815 24.4173 239.83 21.9055C239.875 17.7053 243.338 14.3422 247.832 14.3143C256.684 14.2725 265.552 14.2725 274.42 14.3422C278.167 14.3562 281.854 15.1097 285.273 16.547C292.573 19.6449 296.2 25.0732 296.798 32.4132C297.29 38.2601 295.723 43.5209 291.498 48.2096ZM256.281 72.8391C256.699 72.881 257.013 72.9228 257.311 72.9228C262.626 72.9228 267.94 72.9647 273.255 72.8949C274.733 72.867 276.241 72.5879 277.674 72.253C279.6 71.7925 281.137 70.746 282.033 69.0435C284.72 64.006 281.809 58.5498 275.883 58.0056C271.284 57.5869 266.642 57.7404 262.014 57.6707C260.118 57.6428 258.237 57.6707 256.281 57.6707V72.8391ZM256.296 42.279C256.834 42.3069 257.281 42.3348 257.729 42.3348C261.999 42.3348 266.268 42.3627 270.538 42.3208C271.852 42.3208 273.166 42.2092 274.464 41.9999C277.405 41.4836 279.839 40.1858 280.585 37.2554C281.735 32.7621 280.51 27.878 273.748 27.3617C268.06 26.9291 262.312 27.1663 256.595 27.1105C256.52 27.1105 256.445 27.1943 256.296 27.278V42.279Z" fill="#F0B90B"/>
<path d="M164.205 14.2889H188.151L204.66 35.048V57.4016L177.723 23.719L177.639 85.7143H164.205V14.2889Z" fill="#F0B90B"/>
<path d="M224.398 85.7143H200.457L183.951 64.9521V42.5889L210.888 76.265L210.969 14.2858H224.398V85.7143Z" fill="#F0B90B"/>
</svg>
