<svg width="50" height="50" viewBox="0 0 50 50" fill="none" xmlns="http://www.w3.org/2000/svg">
<mask id="mask0_33_224" style="mask-type:luminance" maskUnits="userSpaceOnUse" x="0" y="0" width="50" height="50">
<path d="M26.4402 49.9558C28.0921 49.8293 28.2405 49.6544 28.3976 49.4692C27.9823 48.8207 25.2531 49.0328 25.2256 49.035L24.9351 49.0682C22.7922 49.1377 21.4192 48.3203 22.1631 47.4182C23.3445 45.9851 29.4893 44.6391 34.9766 45.1112C38.3718 42.8191 41.2809 39.7115 43.4326 36.1092C30.957 34.0903 7.60561 38.8715 11.7932 45.4556C12.4325 46.4608 13.7421 47.3776 15.6859 48.1809L15.9539 48.2877C17.3352 48.7933 17.3891 48.8131 18.2514 49.0616C19.3859 49.3615 19.3859 49.3615 19.994 49.488C20.9293 49.6672 20.9293 49.6672 21.4071 49.7375C22.2187 49.8463 22.2187 49.8464 22.6249 49.8857C23.3646 49.9485 23.3646 49.9485 23.7324 49.9674C24.4392 49.9959 24.4392 49.9959 24.7909 49.9987C25.4855 49.9966 25.4988 49.9966 25.854 49.9839C26.0299 49.9755 26.2645 49.9678 26.4402 49.9558ZM40.7429 5.75477C43.4224 8.21036 45.4425 11.4672 46.5319 15.2712C47.6589 15.6323 48.2153 15.8521 48.4491 16.3049L48.1326 15.4973C47.0841 13.2104 47.0431 13.121 46.2768 11.8721C44.916 9.85222 44.8347 9.73134 43.8489 8.58872C43.1189 7.81226 42.1113 6.80831 41.3281 6.08522C41.1602 5.97355 40.9251 5.84111 40.7429 5.75477ZM11.6943 3.8253L10.4714 4.64357C17.0441 0.340053 28.5107 0.108285 31.2855 0.808009C30.9147 0.718287 30.4198 0.599091 30.0468 0.518848C29.1027 0.338107 29.1027 0.338108 28.62 0.266954C27.7963 0.156457 27.7963 0.156456 27.3836 0.116595C26.6298 0.0524521 26.6298 0.0524531 26.2541 0.0332364C25.5318 0.00415153 25.5318 0.00415204 25.172 0.00129549C24.4618 0.00337298 24.4483 0.00337197 24.0847 0.0164861C23.3367 0.0518034 23.3223 0.0524491 22.9358 0.0842606C22.1212 0.161517 22.0894 0.164633 21.6529 0.223062C19.7556 0.511963 18.1123 0.868646 15.7856 1.75262C14.7453 2.19889 13.1731 2.87329 11.6943 3.8253ZM47.4396 21.9509C47.4317 26.2376 46.3651 30.4074 44.5051 34.1462C46.5006 34.5829 47.7825 35.0189 47.5524 35.727C47.8777 34.9766 48.3131 33.9758 48.5966 33.2087C49.3506 30.7588 49.38 30.6632 49.6366 29.2123C49.9784 26.6113 49.9917 26.5098 50 25.0058L49.9312 23.097C49.7974 22.7662 49.6459 22.391 47.4396 21.8514C47.4397 21.8845 47.4397 21.9176 47.4396 21.9509ZM0.371107 20.4482C0.238904 21.375 0.0737789 22.6135 0 23.5466C1.73153 11.8126 36.4917 8.84348 44.9996 11.3745C43.2735 8.00002 40.7153 5.26422 37.596 3.42058C32.8069 1.23065 10.1216 3.02664 4.73877 10.3103C4.25016 11.0357 3.60593 12.0087 3.16066 12.7612C2.00908 14.9995 1.96406 15.0868 1.45372 16.4684C0.743645 18.6883 0.575008 19.2159 0.371107 20.4482ZM40.8185 39.8026C40.3049 40.4201 39.767 41.0151 39.2064 41.585C37.4771 43.3941 35.5169 45.4447 31.523 47.284C34.42 47.5214 34.2286 48.0219 34.101 48.1697C33.9945 48.2929 33.721 48.3952 33.5741 48.4503C33.8567 48.3397 34.2359 48.1977 34.5159 48.081C35.7089 47.5424 36.9423 46.9855 38.5222 45.9677C40.2583 44.7573 40.5251 44.5712 41.877 43.3699C42.477 42.7781 43.2718 41.9831 43.838 41.359C44.2113 40.7127 43.3365 40.2617 40.8185 39.8026ZM8.00703 43.3029L8.03761 43.3312C0.175143 35.2937 21.8231 28.9933 39.5859 29.296C43.0513 29.355 45.0245 29.6743 46.2075 29.9093C47.0011 27.3577 47.4345 24.678 47.4396 21.9509C47.4426 20.3547 47.2987 18.8143 47.0215 17.3421C33.2397 14.1711 -1.4964 20.1058 0.765767 31.2653L1.33206 33.1285C2.25514 35.4831 2.29118 35.575 2.98382 36.8597C4.26096 39.005 4.3108 39.0886 5.21905 40.2687C6.71089 42.0459 6.90256 42.2742 8.00703 43.3029Z" fill="white"/>
</mask>
<g mask="url(#mask0_33_224)">
<path d="M26.4402 49.9558C28.0921 49.8293 28.2405 49.6544 28.3976 49.4692C27.9823 48.8207 25.2531 49.0328 25.2256 49.035L24.9351 49.0682C22.7922 49.1377 21.4192 48.3203 22.1631 47.4182C23.3445 45.9851 29.4893 44.6391 34.9766 45.1112C38.3718 42.8191 41.2809 39.7115 43.4326 36.1092C30.957 34.0903 7.60561 38.8715 11.7932 45.4556C12.4325 46.4608 13.7421 47.3776 15.6859 48.1809L15.9539 48.2877C17.3352 48.7933 17.3891 48.8131 18.2514 49.0616C19.3859 49.3615 19.3859 49.3615 19.994 49.488C20.9293 49.6672 20.9293 49.6672 21.4071 49.7375C22.2187 49.8463 22.2187 49.8464 22.6249 49.8857C23.3646 49.9485 23.3646 49.9485 23.7324 49.9674C24.4392 49.9959 24.4392 49.9959 24.7909 49.9987C25.4855 49.9966 25.4988 49.9966 25.854 49.9839C26.0299 49.9755 26.2645 49.9678 26.4402 49.9558ZM40.7429 5.75477C43.4224 8.21036 45.4425 11.4672 46.5319 15.2712C47.6589 15.6323 48.2153 15.8521 48.4491 16.3049L48.1326 15.4973C47.0841 13.2104 47.0431 13.121 46.2768 11.8721C44.916 9.85222 44.8347 9.73134 43.8489 8.58872C43.1189 7.81226 42.1113 6.80831 41.3281 6.08522C41.1602 5.97355 40.9251 5.84111 40.7429 5.75477ZM11.6943 3.8253L10.4714 4.64357C17.0441 0.340053 28.5107 0.108285 31.2855 0.808009C30.9147 0.718287 30.4198 0.599091 30.0468 0.518848C29.1027 0.338107 29.1027 0.338108 28.62 0.266954C27.7963 0.156457 27.7963 0.156456 27.3836 0.116595C26.6298 0.0524521 26.6298 0.0524531 26.2541 0.0332364C25.5318 0.00415153 25.5318 0.00415204 25.172 0.00129549C24.4618 0.00337298 24.4483 0.00337197 24.0847 0.0164861C23.3367 0.0518034 23.3223 0.0524491 22.9358 0.0842606C22.1212 0.161517 22.0894 0.164633 21.6529 0.223062C19.7556 0.511963 18.1123 0.868646 15.7856 1.75262C14.7453 2.19889 13.1731 2.87329 11.6943 3.8253ZM47.4396 21.9509C47.4317 26.2376 46.3651 30.4074 44.5051 34.1462C46.5006 34.5829 47.7825 35.0189 47.5524 35.727C47.8777 34.9766 48.3131 33.9758 48.5966 33.2087C49.3506 30.7588 49.38 30.6632 49.6366 29.2123C49.9784 26.6113 49.9917 26.5098 50 25.0058L49.9312 23.097C49.7974 22.7662 49.6459 22.391 47.4396 21.8514C47.4397 21.8845 47.4397 21.9176 47.4396 21.9509ZM0.371107 20.4482C0.238904 21.375 0.0737789 22.6135 0 23.5466C1.73153 11.8126 36.4917 8.84348 44.9996 11.3745C43.2735 8.00002 40.7153 5.26422 37.596 3.42058C32.8069 1.23065 10.1216 3.02664 4.73877 10.3103C4.25016 11.0357 3.60593 12.0087 3.16066 12.7612C2.00908 14.9995 1.96406 15.0868 1.45372 16.4684C0.743645 18.6883 0.575008 19.2159 0.371107 20.4482ZM40.8185 39.8026C40.3049 40.4201 39.767 41.0151 39.2064 41.585C37.4771 43.3941 35.5169 45.4447 31.523 47.284C34.42 47.5214 34.2286 48.0219 34.101 48.1697C33.9945 48.2929 33.721 48.3952 33.5741 48.4503C33.8567 48.3397 34.2359 48.1977 34.5159 48.081C35.7089 47.5424 36.9423 46.9855 38.5222 45.9677C40.2583 44.7573 40.5251 44.5712 41.877 43.3699C42.477 42.7781 43.2718 41.9831 43.838 41.359C44.2113 40.7127 43.3365 40.2617 40.8185 39.8026ZM8.00703 43.3029L8.03761 43.3312C0.175143 35.2937 21.8231 28.9933 39.5859 29.296C43.0513 29.355 45.0245 29.6743 46.2075 29.9093C47.0011 27.3577 47.4345 24.678 47.4396 21.9509C47.4426 20.3547 47.2987 18.8143 47.0215 17.3421C33.2397 14.1711 -1.4964 20.1058 0.765767 31.2653L1.33206 33.1285C2.25514 35.4831 2.29118 35.575 2.98382 36.8597C4.26096 39.005 4.3108 39.0886 5.21905 40.2687C6.71089 42.0459 6.90256 42.2742 8.00703 43.3029Z" fill="url(#paint0_radial_33_224)"/>
</g>
<mask id="mask1_33_224" style="mask-type:luminance" maskUnits="userSpaceOnUse" x="0" y="0" width="50" height="50">
<path d="M15.6859 48.1809C20.7165 50.0872 25.1892 50.0214 26.4402 49.9558C26.2644 49.9644 26.0299 49.9775 25.854 49.9839C25.1439 50.0014 25.1439 50.0014 24.7909 49.9987C24.086 49.9856 24.086 49.9856 23.7324 49.9674C23.0103 49.9223 22.9965 49.9215 22.6249 49.8857C21.8344 49.7996 21.8193 49.7981 21.4071 49.7376C20.5135 49.5936 20.4787 49.5879 19.994 49.488C18.9302 49.2492 18.8665 49.2349 18.2514 49.0616C16.952 48.6627 16.8161 48.621 15.9539 48.2877L15.6859 48.1809ZM25.0245 0.985784C28.9638 0.457193 32.6674 1.04824 35.886 2.52572C36.9025 3.43995 33.3214 3.64744 32.9097 3.66808C27.6445 3.93218 22.6818 2.4582 23.8436 1.38375C24.1529 1.09771 24.809 1.01344 25.0245 0.985784ZM25.0245 0.985784C23.702 -0.0651652 18.4438 1.10537 18.4886 2.92447C18.598 7.38692 38.8076 9.1172 41.3636 6.71874C41.4104 6.67472 41.4562 6.60071 41.4959 6.55021C41.4711 6.404 41.4321 6.19106 41.3281 6.08524C42.1098 6.80989 43.1203 7.81098 43.8489 8.58874C45.3787 10.477 45.4702 10.59 46.2768 11.8721C47.5173 14.0553 47.5657 14.1406 48.1326 15.4973L48.4491 16.3049C48.6526 19.5622 19.4309 19.5413 10.042 11.6436C5.8474 8.11533 9.32777 5.50224 10.4714 4.64359L11.6943 3.82532C12.9265 3.10132 13.9907 2.47612 15.7856 1.75264C17.4109 1.1477 18.9742 0.61495 21.6529 0.223083C22.5104 0.119339 22.5104 0.11934 22.9358 0.0842819C23.7044 0.0301374 23.7044 0.0301409 24.0847 0.0165074C24.8107 -0.00141092 24.8107 -0.00140991 25.172 0.00131679C25.8792 0.0145608 25.8928 0.01482 26.2541 0.0332577C26.9906 0.0792221 27.0047 0.08013 27.3836 0.116616C28.1864 0.204 28.2018 0.205689 28.62 0.266975C29.5226 0.412399 29.5579 0.418111 30.0468 0.518869C30.4192 0.602488 30.9155 0.715062 31.2855 0.80803C31.6856 0.927096 32.0016 1.02097 32.1105 1.25793C29.8828 0.763622 27.5003 0.653516 25.0245 0.985784ZM4.73877 10.3103C-2.62898 21.8957 36.6713 27.0201 47.916 24.2459C49.2508 23.9165 49.9098 23.5408 49.9312 23.097L50 25.0058C49.8859 27.6984 49.8838 27.7498 49.6366 29.2124C49.0869 31.7781 49.0764 31.827 48.5966 33.2087C48.2954 33.969 47.8949 34.9843 47.5524 35.727C45.7616 37.9633 30.1419 38.1526 18.4833 35.3581C2.54492 31.5379 0.264017 26.3763 0.023162 24.3344C-0.00455388 24.0997 0.00689644 23.7831 0 23.5467C0.0905646 22.6149 0.222118 21.3726 0.371107 20.4482C0.948196 17.8924 0.959256 17.8436 1.45372 16.4684C2.40868 14.1329 2.44603 14.0418 3.16066 12.7612C3.61894 12.0165 4.2378 11.0272 4.73877 10.3103ZM0.765767 31.2653C5.0089 43.1724 40.9278 44.2192 43.838 41.359C43.2614 41.9735 42.4868 42.7882 41.877 43.3699C40.2206 44.7889 40.0077 44.9712 38.5222 45.9677C37.4434 46.6222 36.2208 47.3642 34.5159 48.081C34.2334 48.1919 33.8589 48.3454 33.5741 48.4503C28.7156 49.8613 13.512 48.346 8.03761 43.3312L8.00703 43.3029C6.33393 41.6394 6.1973 41.5034 5.21905 40.2688C3.79122 38.2855 3.70573 38.1669 2.98382 36.8597C1.86282 34.5985 1.8191 34.5102 1.33206 33.1286L0.765767 31.2653Z" fill="white"/>
</mask>
<g mask="url(#mask1_33_224)">
<path d="M15.6859 48.1809C20.7165 50.0872 25.1892 50.0214 26.4402 49.9558C26.2644 49.9644 26.0299 49.9775 25.854 49.9839C25.1439 50.0014 25.1439 50.0014 24.7909 49.9987C24.086 49.9856 24.086 49.9856 23.7324 49.9674C23.0103 49.9223 22.9965 49.9215 22.6249 49.8857C21.8344 49.7996 21.8193 49.7981 21.4071 49.7376C20.5135 49.5936 20.4787 49.5879 19.994 49.488C18.9302 49.2492 18.8665 49.2349 18.2514 49.0616C16.952 48.6627 16.8161 48.621 15.9539 48.2877L15.6859 48.1809ZM25.0245 0.985784C28.9638 0.457193 32.6674 1.04824 35.886 2.52572C36.9025 3.43995 33.3214 3.64744 32.9097 3.66808C27.6445 3.93218 22.6818 2.4582 23.8436 1.38375C24.1529 1.09771 24.809 1.01344 25.0245 0.985784ZM25.0245 0.985784C23.702 -0.0651652 18.4438 1.10537 18.4886 2.92447C18.598 7.38692 38.8076 9.1172 41.3636 6.71874C41.4104 6.67472 41.4562 6.60071 41.4959 6.55021C41.4711 6.404 41.4321 6.19106 41.3281 6.08524C42.1098 6.80989 43.1203 7.81098 43.8489 8.58874C45.3787 10.477 45.4702 10.59 46.2768 11.8721C47.5173 14.0553 47.5657 14.1406 48.1326 15.4973L48.4491 16.3049C48.6526 19.5622 19.4309 19.5413 10.042 11.6436C5.8474 8.11533 9.32777 5.50224 10.4714 4.64359L11.6943 3.82532C12.9265 3.10132 13.9907 2.47612 15.7856 1.75264C17.4109 1.1477 18.9742 0.61495 21.6529 0.223083C22.5104 0.119339 22.5104 0.11934 22.9358 0.0842819C23.7044 0.0301374 23.7044 0.0301409 24.0847 0.0165074C24.8107 -0.00141092 24.8107 -0.00140991 25.172 0.00131679C25.8792 0.0145608 25.8928 0.01482 26.2541 0.0332577C26.9906 0.0792221 27.0047 0.08013 27.3836 0.116616C28.1864 0.204 28.2018 0.205689 28.62 0.266975C29.5226 0.412399 29.5579 0.418111 30.0468 0.518869C30.4192 0.602488 30.9155 0.715062 31.2855 0.80803C31.6856 0.927096 32.0016 1.02097 32.1105 1.25793C29.8828 0.763622 27.5003 0.653516 25.0245 0.985784ZM4.73877 10.3103C-2.62898 21.8957 36.6713 27.0201 47.916 24.2459C49.2508 23.9165 49.9098 23.5408 49.9312 23.097L50 25.0058C49.8859 27.6984 49.8838 27.7498 49.6366 29.2124C49.0869 31.7781 49.0764 31.827 48.5966 33.2087C48.2954 33.969 47.8949 34.9843 47.5524 35.727C45.7616 37.9633 30.1419 38.1526 18.4833 35.3581C2.54492 31.5379 0.264017 26.3763 0.023162 24.3344C-0.00455388 24.0997 0.00689644 23.7831 0 23.5467C0.0905646 22.6149 0.222118 21.3726 0.371107 20.4482C0.948196 17.8924 0.959256 17.8436 1.45372 16.4684C2.40868 14.1329 2.44603 14.0418 3.16066 12.7612C3.61894 12.0165 4.2378 11.0272 4.73877 10.3103ZM0.765767 31.2653C5.0089 43.1724 40.9278 44.2192 43.838 41.359C43.2614 41.9735 42.4868 42.7882 41.877 43.3699C40.2206 44.7889 40.0077 44.9712 38.5222 45.9677C37.4434 46.6222 36.2208 47.3642 34.5159 48.081C34.2334 48.1919 33.8589 48.3454 33.5741 48.4503C28.7156 49.8613 13.512 48.346 8.03761 43.3312L8.00703 43.3029C6.33393 41.6394 6.1973 41.5034 5.21905 40.2688C3.79122 38.2855 3.70573 38.1669 2.98382 36.8597C1.86282 34.5985 1.8191 34.5102 1.33206 33.1286L0.765767 31.2653Z" fill="url(#paint1_radial_33_224)"/>
</g>
<defs>
<radialGradient id="paint0_radial_33_224" cx="0" cy="0" r="1" gradientUnits="userSpaceOnUse" gradientTransform="translate(33.4872 29.2326) scale(28.4252 28.3643)">
<stop stop-color="#D7C4E6"/>
<stop offset="0.347059" stop-color="#9264B9"/>
<stop offset="0.711765" stop-color="#5E2590"/>
<stop offset="1" stop-color="#28193D"/>
</radialGradient>
<radialGradient id="paint1_radial_33_224" cx="0" cy="0" r="1" gradientUnits="userSpaceOnUse" gradientTransform="translate(15.0182 13.5258) scale(26.2031 26.147)">
<stop stop-color="#F9A72B"/>
<stop offset="0.341837" stop-color="#F68712"/>
<stop offset="0.739796" stop-color="#F14624"/>
<stop offset="1" stop-color="#BB351B"/>
</radialGradient>
</defs>
</svg>
