<svg width="50" height="50" viewBox="0 0 50 50" fill="none" xmlns="http://www.w3.org/2000/svg">
<path d="M36.7961 24.999L41.8666 19.9285L46.9371 24.999L41.8666 30.0695L36.7961 24.999Z" fill="#F0B90B"/>
<path d="M3.05475 24.9983L8.12526 19.9278L13.1958 24.9983L8.12526 30.0688L3.05475 24.9983Z" fill="#F0B90B"/>
<path d="M25 36.8047L16.5937 28.3984L11.5234 33.4688L25 46.9453L38.4766 33.4688L33.4062 28.3984L25 36.8047Z" fill="#F0B90B"/>
<path d="M25 13.1953L33.4062 21.6016L38.4766 16.5312L25 3.05469L11.5234 16.5312L16.5937 21.6016L25 13.1953Z" fill="#F0B90B"/>
<path d="M19.9848 25L24.9918 19.993L29.9988 25L24.9918 30.007L19.9848 25Z" fill="#F0B90B"/>
</svg>
