<svg width="393" height="80" viewBox="0 0 393 80" fill="none" xmlns="http://www.w3.org/2000/svg">
<path d="M105.704 42.4736H93.5669L93.5015 36.4868H104.101C105.889 36.4868 107.405 36.2251 108.648 35.7017C109.913 35.1564 110.873 34.3822 111.527 33.3789C112.182 32.3538 112.509 31.1216 112.509 29.6821C112.509 28.09 112.203 26.7923 111.593 25.7891C110.982 24.7858 110.044 24.0552 108.779 23.5972C107.536 23.1392 105.944 22.9102 104.003 22.9102H96.0532V64H87.8418V16.3672H104.003C106.62 16.3672 108.954 16.618 111.004 17.1196C113.076 17.6213 114.832 18.4064 116.271 19.4751C117.732 20.522 118.834 21.8524 119.575 23.4663C120.339 25.0802 120.72 26.9995 120.72 29.2241C120.72 31.187 120.251 32.9863 119.313 34.6221C118.376 36.236 116.991 37.5555 115.159 38.5806C113.327 39.6056 111.048 40.2163 108.321 40.4126L105.704 42.4736ZM105.344 64H90.9824L94.6792 57.4897H105.344C107.198 57.4897 108.747 57.1844 109.99 56.5737C111.233 55.9412 112.16 55.0798 112.771 53.9893C113.403 52.877 113.719 51.5793 113.719 50.0962C113.719 48.5477 113.447 47.2064 112.901 46.0723C112.356 44.9163 111.495 44.033 110.317 43.4224C109.139 42.7899 107.602 42.4736 105.704 42.4736H96.4785L96.5439 36.4868H108.55L110.415 38.7441C113.032 38.8314 115.181 39.4093 116.86 40.478C118.561 41.5467 119.826 42.9316 120.655 44.6328C121.484 46.334 121.898 48.166 121.898 50.1289C121.898 53.1605 121.233 55.7013 119.902 57.7515C118.594 59.8016 116.707 61.361 114.243 62.4297C111.778 63.4766 108.812 64 105.344 64ZM138.942 16.3672V64H130.731V16.3672H138.942ZM186.935 16.3672V64H178.724L157.361 29.8784V64H149.149V16.3672H157.361L178.789 50.5542V16.3672H186.935ZM215.855 22.7139L201.624 64H193.02L210.948 16.3672H216.444L215.855 22.7139ZM227.763 64L213.5 22.7139L212.878 16.3672H218.407L236.4 64H227.763ZM227.076 46.334V52.8442H201.166V46.334H227.076ZM279.518 16.3672V64H271.307L249.944 29.8784V64H241.732V16.3672H249.944L271.372 50.5542V16.3672H279.518ZM317.435 48.4932H325.613C325.352 51.612 324.479 54.3927 322.996 56.8354C321.513 59.2563 319.43 61.1647 316.748 62.5605C314.065 63.9564 310.804 64.6543 306.966 64.6543C304.021 64.6543 301.372 64.1309 299.016 63.084C296.661 62.0153 294.643 60.5104 292.964 58.5693C291.285 56.6064 289.998 54.2401 289.104 51.4702C288.231 48.7004 287.795 45.6034 287.795 42.1792V38.2207C287.795 34.7965 288.242 31.6995 289.136 28.9297C290.052 26.1598 291.361 23.7935 293.062 21.8306C294.763 19.8459 296.802 18.3301 299.18 17.2832C301.579 16.2363 304.272 15.7129 307.26 15.7129C311.055 15.7129 314.261 16.4108 316.878 17.8066C319.496 19.2025 321.524 21.1326 322.963 23.5972C324.425 26.0617 325.319 28.8861 325.646 32.0703H317.467C317.249 30.0202 316.769 28.2645 316.028 26.8032C315.308 25.342 314.239 24.2297 312.822 23.4663C311.404 22.6812 309.55 22.2886 307.26 22.2886C305.385 22.2886 303.749 22.6375 302.353 23.3354C300.957 24.0334 299.79 25.0584 298.853 26.4106C297.915 27.7629 297.206 29.4313 296.726 31.416C296.268 33.3789 296.039 35.6253 296.039 38.1553V42.1792C296.039 44.5783 296.246 46.7593 296.661 48.7222C297.097 50.6632 297.751 52.3317 298.624 53.7275C299.518 55.1234 300.652 56.203 302.026 56.9663C303.4 57.7297 305.047 58.1113 306.966 58.1113C309.299 58.1113 311.186 57.7406 312.625 56.999C314.087 56.2575 315.188 55.1779 315.93 53.7603C316.693 52.3208 317.195 50.5651 317.435 48.4932ZM364.25 57.4897V64H338.961V57.4897H364.25ZM341.284 16.3672V64H333.072V16.3672H341.284ZM360.945 36.2578V42.6699H338.961V36.2578H360.945ZM364.086 16.3672V22.9102H338.961V16.3672H364.086Z" fill="#F0B90B"/>
<path d="M58.8737 39.9985L66.9865 31.8857L75.0993 39.9985L66.9865 48.1114L58.8737 39.9985Z" fill="#F0B90B"/>
<path d="M4.88759 39.9971L13.0004 31.8842L21.1132 39.9971L13.0004 48.1099L4.88759 39.9971Z" fill="#F0B90B"/>
<path d="M40 58.8875L26.55 45.4375L18.4375 53.55L40 75.1125L61.5625 53.55L53.45 45.4375L40 58.8875Z" fill="#F0B90B"/>
<path d="M40 21.1125L53.45 34.5625L61.5625 26.45L40 4.88745L18.4375 26.45L26.55 34.5625L40 21.1125Z" fill="#F0B90B"/>
<path d="M31.9756 40L39.9868 31.9888L47.998 40L39.9868 48.0112L31.9756 40Z" fill="#F0B90B"/>
</svg>
