<svg width="750" height="250" viewBox="0 0 750 250" fill="none" xmlns="http://www.w3.org/2000/svg">
<path d="M313.002 108.333H203.451V142.857H313.002V108.333Z" fill="#F0B90B"/>
<path d="M185.393 125.595L202.849 108.333L220.305 125.595L202.849 142.857L185.393 125.595Z" fill="#F0B90B"/>
<path d="M15.4454 124.992L41.0828 99.639L66.7203 124.992L41.0828 150.344L15.4454 124.992Z" fill="#F0B90B"/>
<path d="M126.405 184.023L83.9008 141.992L58.2644 167.344L126.405 234.726L194.545 167.344L168.908 141.992L126.405 184.023Z" fill="#F0B90B"/>
<path d="M126.405 65.9765L168.908 108.008L194.545 82.656L126.405 15.2734L58.2644 82.656L83.9008 108.008L126.405 65.9765Z" fill="#F0B90B"/>
<path d="M361.57 120.524C368.437 125.234 373.587 130.85 376.834 137.758C385.12 155.584 385.12 173.411 374.894 190.47C366.944 203.762 353.434 210.321 337.945 212.449C326.674 214.018 315.104 213.984 303.647 214.158C286.591 214.402 269.572 214.228 252.516 214.193C241.618 214.158 232.399 205.785 232.399 195.599C232.325 154.922 232.325 114.244 232.399 73.5673C232.399 67.2879 232.362 61.0433 232.399 54.7638C232.511 44.2631 241.17 35.8556 252.404 35.7858C274.536 35.6811 296.705 35.6811 318.874 35.8556C328.242 35.8904 337.46 37.7743 346.007 41.3675C364.257 49.1122 373.326 62.6829 374.819 81.0329C376.051 95.6502 372.132 108.802 361.57 120.524ZM273.528 182.098C274.573 182.202 275.357 182.307 276.103 182.307C289.39 182.307 302.676 182.412 315.963 182.237C319.658 182.167 323.427 181.47 327.01 180.633C331.824 179.481 335.669 176.865 337.908 172.609C344.626 160.015 337.348 146.374 322.531 145.014C311.036 143.967 299.429 144.351 287.86 144.177C283.12 144.107 278.417 144.177 273.528 144.177V182.098ZM273.565 105.697C274.909 105.767 276.029 105.837 277.148 105.837C287.822 105.837 298.496 105.907 309.17 105.802C312.455 105.802 315.739 105.523 318.986 105C326.338 103.709 332.422 100.464 334.288 93.1384C337.161 81.9051 334.101 69.695 317.194 68.4042C302.975 67.3227 288.606 67.9158 274.312 67.7763C274.125 67.7763 273.939 67.9856 273.565 68.1949V105.697Z" fill="#F0B90B"/>
<path d="M728.745 120.524C735.612 125.234 740.762 130.85 744.009 137.758C752.295 155.584 752.295 173.411 742.069 190.47C734.119 203.762 720.609 210.321 705.12 212.449C693.849 214.018 682.279 213.984 670.822 214.158C653.766 214.402 636.747 214.228 619.691 214.193C608.793 214.158 599.574 205.785 599.574 195.599C599.5 154.922 599.5 114.244 599.574 73.5673C599.574 67.2879 599.537 61.0433 599.574 54.7638C599.686 44.2631 608.345 35.8556 619.579 35.7858C641.711 35.6811 663.88 35.6811 686.049 35.8556C695.417 35.8904 704.635 37.7743 713.182 41.3675C731.432 49.1122 740.501 62.6829 741.994 81.0329C743.226 95.6502 739.307 108.802 728.745 120.524ZM640.703 182.098C641.748 182.202 642.532 182.307 643.278 182.307C656.565 182.307 669.851 182.412 683.138 182.237C686.833 182.167 690.602 181.47 694.185 180.633C698.999 179.481 702.844 176.865 705.083 172.609C711.801 160.015 704.523 146.374 689.706 145.014C678.211 143.967 666.604 144.351 655.034 144.177C650.295 144.107 645.592 144.177 640.703 144.177V182.098ZM640.74 105.697C642.084 105.767 643.203 105.837 644.323 105.837C654.997 105.837 665.671 105.907 676.345 105.802C679.629 105.802 682.914 105.523 686.161 105C693.513 103.709 699.597 100.464 701.463 93.1384C704.336 81.9051 701.276 69.695 684.369 68.4042C670.15 67.3227 655.781 67.9158 641.487 67.7763C641.3 67.7763 641.113 67.9856 640.74 68.1949V105.697Z" fill="#F0B90B"/>
<path d="M410.513 35.7224H470.379L511.649 87.62V143.504L444.308 59.2977L444.098 214.286H410.513V35.7224Z" fill="#F0B90B"/>
<path d="M560.996 214.286H501.143L459.879 162.38V106.472L527.22 190.663L527.424 35.7144H560.996V214.286Z" fill="#F0B90B"/>
</svg>
