<svg width="746" height="121" viewBox="0 0 746 121" fill="none" xmlns="http://www.w3.org/2000/svg">
<mask id="mask0_33_222" style="mask-type:luminance" maskUnits="userSpaceOnUse" x="0" y="0" width="121" height="121">
<path d="M63.4988 120.231C67.466 119.927 67.8225 119.506 68.1997 119.06C67.2022 117.499 60.6478 118.01 60.5819 118.015L59.8841 118.095C54.7378 118.262 51.4403 116.295 53.2269 114.124C56.0641 110.675 70.8216 107.435 83.9997 108.572C92.1538 103.055 99.1403 95.5757 104.308 86.906C74.3463 82.047 18.2656 93.5542 28.3225 109.4C29.8578 111.82 33.0031 114.026 37.6713 115.959L38.315 116.217C41.6322 117.434 41.7616 117.481 43.8325 118.079C46.5572 118.801 46.5572 118.801 48.0175 119.105C50.2638 119.537 50.2638 119.537 51.4113 119.706C53.3603 119.968 53.3603 119.968 54.3359 120.063C56.1125 120.214 56.1125 120.214 56.9956 120.259C58.6931 120.328 58.6931 120.328 59.5378 120.334C61.2059 120.329 61.2378 120.329 62.0909 120.299C62.5134 120.279 63.0769 120.26 63.4988 120.231ZM97.8481 13.8504C104.283 19.7604 109.135 27.5988 111.751 36.7541C114.458 37.6232 115.794 38.1523 116.355 39.242L115.595 37.2982C113.077 31.7942 112.979 31.5791 111.138 28.5732C107.87 23.712 107.675 23.421 105.308 20.671C103.554 18.8023 101.134 16.386 99.2535 14.6457C98.8503 14.377 98.2856 14.0582 97.8481 13.8504ZM28.085 9.20664L25.1481 11.176C40.9331 0.818519 68.4713 0.260709 75.1353 1.94477C74.2447 1.72883 73.0563 1.44196 72.1603 1.24883C69.8931 0.813834 69.8931 0.813837 68.7338 0.642587C66.7556 0.376649 66.7556 0.376647 65.7644 0.280709C63.9541 0.126334 63.9541 0.126337 63.0519 0.0800867C61.3172 0.0100867 61.3172 0.0100879 60.4531 0.00321289C58.7475 0.00821289 58.715 0.00821045 57.8419 0.039773C56.0453 0.124773 56.0109 0.126327 55.0825 0.202889C53.1263 0.388827 53.05 0.396325 52.0016 0.53695C47.445 1.23226 43.4984 2.09071 37.9106 4.21821C35.4122 5.29227 31.6366 6.91539 28.085 9.20664ZM113.931 52.8304C113.912 63.1476 111.35 73.1832 106.883 82.1817C111.676 83.2326 114.754 84.282 114.202 85.986C114.983 84.1801 116.029 81.7713 116.71 79.9251C118.52 74.0288 118.591 73.7988 119.207 70.307C120.028 64.047 120.06 63.8026 120.08 60.1829L119.915 55.5888C119.593 54.7926 119.23 53.8898 113.931 52.591C113.931 52.6707 113.931 52.7504 113.931 52.8304ZM0.891251 49.2138C0.573751 51.4445 0.177188 54.4251 0 56.671C4.15844 28.4301 87.6385 21.2842 108.071 27.3757C103.926 19.2541 97.7819 12.6698 90.2906 8.23258C78.7891 2.96196 24.3081 7.28446 11.3806 24.8145C10.2072 26.5604 8.66001 28.902 7.59063 30.7132C4.82501 36.1001 4.71687 36.3104 3.49125 39.6354C1.78594 44.9782 1.38094 46.2479 0.891251 49.2138ZM98.0297 95.7951C96.7963 97.2813 95.5044 98.7132 94.1581 100.085C90.005 104.439 85.2975 109.374 75.7056 113.801C82.6631 114.372 82.2034 115.577 81.8969 115.933C81.6413 116.229 80.9844 116.475 80.6316 116.608C81.3103 116.342 82.221 116 82.8935 115.719C85.7585 114.423 88.7206 113.083 92.515 110.633C96.6844 107.72 97.325 107.272 100.572 104.381C102.013 102.956 103.922 101.043 105.281 99.541C106.178 97.9854 104.077 96.9001 98.0297 95.7951ZM19.2297 104.219L19.3031 104.288C0.420624 84.9432 52.4103 69.7798 95.0694 70.5082C103.392 70.6504 108.131 71.4188 110.972 71.9845C112.878 65.8432 113.919 59.3938 113.931 52.8304C113.938 48.9888 113.593 45.2813 112.927 41.7382C79.8284 34.1063 -3.59375 48.3898 1.83907 75.2479L3.19907 79.7323C5.41594 85.3992 5.5025 85.6204 7.16594 88.7123C10.2331 93.8754 10.3528 94.0767 12.5341 96.917C16.1169 101.194 16.5772 101.744 19.2297 104.219Z" fill="white"/>
</mask>
<g mask="url(#mask0_33_222)">
<path d="M63.4988 120.231C67.466 119.927 67.8225 119.506 68.1997 119.06C67.2022 117.499 60.6478 118.01 60.5819 118.015L59.8841 118.095C54.7378 118.262 51.4403 116.295 53.2269 114.124C56.0641 110.675 70.8216 107.435 83.9997 108.572C92.1538 103.055 99.1403 95.5757 104.308 86.906C74.3463 82.047 18.2656 93.5542 28.3225 109.4C29.8578 111.82 33.0031 114.026 37.6713 115.959L38.315 116.217C41.6322 117.434 41.7616 117.481 43.8325 118.079C46.5572 118.801 46.5572 118.801 48.0175 119.105C50.2638 119.537 50.2638 119.537 51.4113 119.706C53.3603 119.968 53.3603 119.968 54.3359 120.063C56.1125 120.214 56.1125 120.214 56.9956 120.259C58.6931 120.328 58.6931 120.328 59.5378 120.334C61.2059 120.329 61.2378 120.329 62.0909 120.299C62.5134 120.279 63.0769 120.26 63.4988 120.231ZM97.8481 13.8504C104.283 19.7604 109.135 27.5988 111.751 36.7541C114.458 37.6232 115.794 38.1523 116.355 39.242L115.595 37.2982C113.077 31.7942 112.979 31.5791 111.138 28.5732C107.87 23.712 107.675 23.421 105.308 20.671C103.554 18.8023 101.134 16.386 99.2535 14.6457C98.8503 14.377 98.2856 14.0582 97.8481 13.8504ZM28.085 9.20664L25.1481 11.176C40.9331 0.818519 68.4713 0.260709 75.1353 1.94477C74.2447 1.72883 73.0563 1.44196 72.1603 1.24883C69.8931 0.813834 69.8931 0.813837 68.7338 0.642587C66.7556 0.376649 66.7556 0.376647 65.7644 0.280709C63.9541 0.126334 63.9541 0.126337 63.0519 0.0800867C61.3172 0.0100867 61.3172 0.0100879 60.4531 0.00321289C58.7475 0.00821289 58.715 0.00821045 57.8419 0.039773C56.0453 0.124773 56.0109 0.126327 55.0825 0.202889C53.1263 0.388827 53.05 0.396325 52.0016 0.53695C47.445 1.23226 43.4984 2.09071 37.9106 4.21821C35.4122 5.29227 31.6366 6.91539 28.085 9.20664ZM113.931 52.8304C113.912 63.1476 111.35 73.1832 106.883 82.1817C111.676 83.2326 114.754 84.282 114.202 85.986C114.983 84.1801 116.029 81.7713 116.71 79.9251C118.52 74.0288 118.591 73.7988 119.207 70.307C120.028 64.047 120.06 63.8026 120.08 60.1829L119.915 55.5888C119.593 54.7926 119.23 53.8898 113.931 52.591C113.931 52.6707 113.931 52.7504 113.931 52.8304ZM0.891251 49.2138C0.573751 51.4445 0.177188 54.4251 0 56.671C4.15844 28.4301 87.6385 21.2842 108.071 27.3757C103.926 19.2541 97.7819 12.6698 90.2906 8.23258C78.7891 2.96196 24.3081 7.28446 11.3806 24.8145C10.2072 26.5604 8.66001 28.902 7.59063 30.7132C4.82501 36.1001 4.71687 36.3104 3.49125 39.6354C1.78594 44.9782 1.38094 46.2479 0.891251 49.2138ZM98.0297 95.7951C96.7963 97.2813 95.5044 98.7132 94.1581 100.085C90.005 104.439 85.2975 109.374 75.7056 113.801C82.6631 114.372 82.2034 115.577 81.8969 115.933C81.6413 116.229 80.9844 116.475 80.6316 116.608C81.3103 116.342 82.221 116 82.8935 115.719C85.7585 114.423 88.7206 113.083 92.515 110.633C96.6844 107.72 97.325 107.272 100.572 104.381C102.013 102.956 103.922 101.043 105.281 99.541C106.178 97.9854 104.077 96.9001 98.0297 95.7951ZM19.2297 104.219L19.3031 104.288C0.420624 84.9432 52.4103 69.7798 95.0694 70.5082C103.392 70.6504 108.131 71.4188 110.972 71.9845C112.878 65.8432 113.919 59.3938 113.931 52.8304C113.938 48.9888 113.593 45.2813 112.927 41.7382C79.8284 34.1063 -3.59375 48.3898 1.83907 75.2479L3.19907 79.7323C5.41594 85.3992 5.5025 85.6204 7.16594 88.7123C10.2331 93.8754 10.3528 94.0767 12.5341 96.917C16.1169 101.194 16.5772 101.744 19.2297 104.219Z" fill="url(#paint0_radial_33_222)"/>
</g>
<mask id="mask1_33_222" style="mask-type:luminance" maskUnits="userSpaceOnUse" x="0" y="0" width="121" height="121">
<path d="M37.6713 115.959C49.7528 120.548 60.4944 120.389 63.4988 120.231C63.0766 120.252 62.5134 120.284 62.0909 120.299C60.3856 120.341 60.3856 120.341 59.5378 120.334C57.845 120.303 57.845 120.303 56.9956 120.259C55.2616 120.151 55.2284 120.149 54.3359 120.063C52.4375 119.855 52.4013 119.852 51.4113 119.706C49.2653 119.359 49.1816 119.346 48.0175 119.105C45.4628 118.531 45.3097 118.496 43.8325 118.079C40.7119 117.119 40.3856 117.019 38.315 116.217L37.6713 115.959ZM60.0988 2.37257C69.5594 1.10038 78.4541 2.52288 86.1838 6.07882C88.625 8.27913 80.0247 8.77851 79.036 8.8282C66.3909 9.46382 54.4725 5.91631 57.2628 3.33038C58.0056 2.64194 59.5813 2.43913 60.0988 2.37257ZM60.0988 2.37257C56.9228 -0.156808 44.2947 2.66038 44.4022 7.03851C44.665 17.7785 93.2003 21.9429 99.3388 16.1704C99.4513 16.0644 99.5613 15.8863 99.6566 15.7648C99.5969 15.4129 99.5035 14.9004 99.2535 14.6457C101.131 16.3897 103.558 18.7991 105.308 20.671C108.982 25.2157 109.201 25.4876 111.138 28.5732C114.118 33.8276 114.234 34.0329 115.595 37.2982L116.355 39.2419C116.844 47.0813 46.6653 47.031 24.1169 28.0232C14.0431 19.5316 22.4016 13.2426 25.1481 11.176L28.085 9.20663C31.0444 7.46413 33.6 5.95944 37.9106 4.21819C41.8141 2.76226 45.5684 1.48006 52.0016 0.536935C54.0609 0.287247 54.0609 0.287249 55.0825 0.202874C56.9284 0.0725616 56.9284 0.0725702 57.8419 0.0397577C59.5853 -0.00336731 59.5853 -0.00336487 60.4531 0.00319763C62.1516 0.0350726 62.1841 0.0356964 63.0519 0.0800714C64.8206 0.190696 64.8544 0.192881 65.7644 0.280694C67.6925 0.491007 67.7294 0.495071 68.7338 0.642571C70.9016 0.992572 70.9863 1.00632 72.1603 1.24882C73.0547 1.45007 74.2466 1.72101 75.1353 1.94476C76.0963 2.23132 76.855 2.45725 77.1166 3.02757C71.7666 1.83788 66.0447 1.57288 60.0988 2.37257ZM11.3806 24.8144C-6.31375 52.6976 88.0697 65.0307 115.075 58.3538C118.281 57.561 119.863 56.6569 119.915 55.5888L120.08 60.1829C119.806 66.6632 119.801 66.787 119.207 70.307C117.887 76.482 117.862 76.5998 116.71 79.9251C115.986 81.7551 115.024 84.1985 114.202 85.986C109.901 91.3682 72.3888 91.8238 44.3894 85.0982C6.11187 75.9038 0.634063 63.4813 0.0556259 58.567C-0.0109366 58.002 0.0165625 57.2401 0 56.671C0.2175 54.4285 0.533438 51.4385 0.891251 49.2138C2.27719 43.0626 2.30375 42.9451 3.49125 39.6354C5.78469 34.0145 5.87438 33.7951 7.59063 30.7132C8.69126 28.9207 10.1775 26.5398 11.3806 24.8144ZM1.83907 75.2479C12.0294 103.905 98.2922 106.425 105.281 99.541C103.897 101.02 102.036 102.981 100.572 104.381C96.5938 107.796 96.0825 108.234 92.515 110.633C89.9241 112.208 86.9878 113.994 82.8935 115.719C82.215 115.986 81.3156 116.355 80.6316 116.608C68.9635 120.004 32.4503 116.357 19.3031 104.288L19.2297 104.219C15.2116 100.216 14.8834 99.8885 12.5341 96.917C9.105 92.1438 8.89969 91.8582 7.16594 88.7123C4.47375 83.2701 4.36875 83.0576 3.19907 79.7323L1.83907 75.2479Z" fill="white"/>
</mask>
<g mask="url(#mask1_33_222)">
<path d="M37.6713 115.959C49.7528 120.548 60.4944 120.389 63.4988 120.231C63.0766 120.252 62.5134 120.284 62.0909 120.299C60.3856 120.341 60.3856 120.341 59.5378 120.334C57.845 120.303 57.845 120.303 56.9956 120.259C55.2616 120.151 55.2284 120.149 54.3359 120.063C52.4375 119.855 52.4013 119.852 51.4113 119.706C49.2653 119.359 49.1816 119.346 48.0175 119.105C45.4628 118.531 45.3097 118.496 43.8325 118.079C40.7119 117.119 40.3856 117.019 38.315 116.217L37.6713 115.959ZM60.0988 2.37257C69.5594 1.10038 78.4541 2.52288 86.1838 6.07882C88.625 8.27913 80.0247 8.77851 79.036 8.8282C66.3909 9.46382 54.4725 5.91631 57.2628 3.33038C58.0056 2.64194 59.5813 2.43913 60.0988 2.37257ZM60.0988 2.37257C56.9228 -0.156808 44.2947 2.66038 44.4022 7.03851C44.665 17.7785 93.2003 21.9429 99.3388 16.1704C99.4513 16.0644 99.5613 15.8863 99.6566 15.7648C99.5969 15.4129 99.5035 14.9004 99.2535 14.6457C101.131 16.3897 103.558 18.7991 105.308 20.671C108.982 25.2157 109.201 25.4876 111.138 28.5732C114.118 33.8276 114.234 34.0329 115.595 37.2982L116.355 39.2419C116.844 47.0813 46.6653 47.031 24.1169 28.0232C14.0431 19.5316 22.4016 13.2426 25.1481 11.176L28.085 9.20663C31.0444 7.46413 33.6 5.95944 37.9106 4.21819C41.8141 2.76226 45.5684 1.48006 52.0016 0.536935C54.0609 0.287247 54.0609 0.287249 55.0825 0.202874C56.9284 0.0725616 56.9284 0.0725702 57.8419 0.0397577C59.5853 -0.00336731 59.5853 -0.00336487 60.4531 0.00319763C62.1516 0.0350726 62.1841 0.0356964 63.0519 0.0800714C64.8206 0.190696 64.8544 0.192881 65.7644 0.280694C67.6925 0.491007 67.7294 0.495071 68.7338 0.642571C70.9016 0.992572 70.9863 1.00632 72.1603 1.24882C73.0547 1.45007 74.2466 1.72101 75.1353 1.94476C76.0963 2.23132 76.855 2.45725 77.1166 3.02757C71.7666 1.83788 66.0447 1.57288 60.0988 2.37257ZM11.3806 24.8144C-6.31375 52.6976 88.0697 65.0307 115.075 58.3538C118.281 57.561 119.863 56.6569 119.915 55.5888L120.08 60.1829C119.806 66.6632 119.801 66.787 119.207 70.307C117.887 76.482 117.862 76.5998 116.71 79.9251C115.986 81.7551 115.024 84.1985 114.202 85.986C109.901 91.3682 72.3888 91.8238 44.3894 85.0982C6.11187 75.9038 0.634063 63.4813 0.0556259 58.567C-0.0109366 58.002 0.0165625 57.2401 0 56.671C0.2175 54.4285 0.533438 51.4385 0.891251 49.2138C2.27719 43.0626 2.30375 42.9451 3.49125 39.6354C5.78469 34.0145 5.87438 33.7951 7.59063 30.7132C8.69126 28.9207 10.1775 26.5398 11.3806 24.8144ZM1.83907 75.2479C12.0294 103.905 98.2922 106.425 105.281 99.541C103.897 101.02 102.036 102.981 100.572 104.381C96.5938 107.796 96.0825 108.234 92.515 110.633C89.9241 112.208 86.9878 113.994 82.8935 115.719C82.215 115.986 81.3156 116.355 80.6316 116.608C68.9635 120.004 32.4503 116.357 19.3031 104.288L19.2297 104.219C15.2116 100.216 14.8834 99.8885 12.5341 96.917C9.105 92.1438 8.89969 91.8582 7.16594 88.7123C4.47375 83.2701 4.36875 83.0576 3.19907 79.7323L1.83907 75.2479Z" fill="url(#paint1_radial_33_222)"/>
</g>
<path d="M183.399 80.5653C183.399 79.2958 183.204 78.1565 182.813 77.1473C182.455 76.1057 181.772 75.1617 180.763 74.3153C179.754 73.4364 178.338 72.5738 176.515 71.7274C174.692 70.8811 172.332 70.0022 169.435 69.0907C166.212 68.049 163.152 66.8772 160.255 65.5751C157.39 64.273 154.851 62.7593 152.638 61.0341C150.457 59.2762 148.731 57.2417 147.462 54.9305C146.225 52.6193 145.606 49.9338 145.606 46.8739C145.606 43.9117 146.257 41.2261 147.56 38.8173C148.862 36.3759 150.685 34.2925 153.028 32.5673C155.372 30.8094 158.139 29.4585 161.329 28.5145C164.552 27.5705 168.084 27.0985 171.925 27.0985C177.166 27.0985 181.739 28.0425 185.646 29.9305C189.552 31.8186 192.579 34.4065 194.728 37.6942C196.909 40.982 197.999 44.7417 197.999 48.9735H183.448C183.448 46.8902 183.009 45.0673 182.13 43.5048C181.284 41.9097 179.981 40.6565 178.224 39.745C176.498 38.8335 174.317 38.3778 171.681 38.3778C169.142 38.3778 167.026 38.7684 165.333 39.5497C163.64 40.2984 162.371 41.3238 161.524 42.6259C160.678 43.8954 160.255 45.3277 160.255 46.9227C160.255 48.1272 160.548 49.2177 161.134 50.1942C161.752 51.1708 162.664 52.0822 163.868 52.9286C165.073 53.7749 166.554 54.5725 168.312 55.3212C170.069 56.0699 172.104 56.8023 174.415 57.5184C178.289 58.6903 181.69 60.0087 184.62 61.4735C187.582 62.9384 190.056 64.5822 192.042 66.4052C194.028 68.2281 195.525 70.2951 196.534 72.6063C197.543 74.9175 198.048 77.538 198.048 80.4677C198.048 83.5601 197.446 86.327 196.241 88.7684C195.037 91.2098 193.295 93.2769 191.017 94.9696C188.738 96.6623 186.02 97.9481 182.862 98.827C179.705 99.7059 176.173 100.145 172.267 100.145C168.751 100.145 165.284 99.6897 161.866 98.7782C158.448 97.8342 155.34 96.4182 152.54 94.5302C149.773 92.6421 147.56 90.2333 145.899 87.3036C144.239 84.3739 143.409 80.9071 143.409 76.9032H158.106C158.106 79.1167 158.448 80.9885 159.132 82.5184C159.815 84.0484 160.776 85.2854 162.013 86.2294C163.282 87.1734 164.78 87.857 166.505 88.2802C168.263 88.7033 170.183 88.9149 172.267 88.9149C174.806 88.9149 176.889 88.5568 178.517 87.8407C180.177 87.1246 181.397 86.1317 182.179 84.8622C182.993 83.5927 183.399 82.1604 183.399 80.5653ZM264.356 62.0106V90.1844C263.25 91.5191 261.541 92.9677 259.229 94.5302C256.918 96.0601 253.94 97.3785 250.294 98.4852C246.648 99.592 242.237 100.145 237.062 100.145C232.472 100.145 228.289 99.3967 224.513 97.8993C220.737 96.3693 217.481 94.1395 214.747 91.2098C212.045 88.2802 209.962 84.6994 208.497 80.4677C207.032 76.2033 206.3 71.3368 206.3 65.868V61.4247C206.3 55.9559 207 51.0894 208.399 46.8251C209.832 42.5608 211.866 38.9637 214.503 36.0341C217.14 33.1044 220.281 30.8746 223.927 29.3446C227.573 27.8147 231.625 27.0497 236.085 27.0497C242.27 27.0497 247.348 28.0588 251.319 30.077C255.291 32.0627 258.318 34.8296 260.401 38.3778C262.517 41.8934 263.819 45.9299 264.308 50.4872H250.099C249.741 48.0783 249.057 45.9787 248.048 44.1884C247.039 42.398 245.59 40.9983 243.702 39.9891C241.847 38.98 239.438 38.4755 236.476 38.4755C234.034 38.4755 231.853 38.98 229.933 39.9891C228.045 40.9657 226.45 42.4143 225.147 44.3348C223.845 46.2554 222.853 48.6317 222.169 51.4637C221.485 54.2958 221.144 57.5835 221.144 61.327V65.868C221.144 69.579 221.502 72.8667 222.218 75.7313C222.934 78.5634 223.992 80.9559 225.392 82.9091C226.824 84.8296 228.582 86.2782 230.665 87.2548C232.748 88.2313 235.174 88.7196 237.94 88.7196C240.252 88.7196 242.172 88.5243 243.702 88.1337C245.265 87.743 246.518 87.271 247.462 86.7177C248.438 86.1317 249.187 85.5783 249.708 85.0575V72.4598H236.329V62.0106H264.356ZM288.233 28.0751L301.612 52.8798L314.991 28.0751H331.739L311.085 63.329L332.276 99.1688H315.382L301.612 73.8759L287.843 99.1688H270.851L292.091 63.329L271.388 28.0751H288.233Z" fill="url(#paint2_linear_33_222)"/>
<path d="M397.688 88.8856V99.1688H363.63V88.8856H397.688ZM367.937 35.1844V99.1688H354.753V35.1844H367.937ZM393.249 61.244V71.2635H363.63V61.244H393.249ZM397.644 35.1844V45.5116H363.63V35.1844H397.644ZM414.782 51.62L422.648 66.078L430.734 51.62H444.226L430.778 74.8671L444.841 99.1688H431.306L422.736 83.8759L414.167 99.1688H400.632L414.694 74.8671L401.247 51.62H414.782ZM469.143 90.16C470.695 90.16 472.072 89.8671 473.273 89.2811C474.475 88.6659 475.412 87.8163 476.086 86.7323C476.789 85.619 477.155 84.3153 477.185 82.8212H489.094C489.064 86.161 488.171 89.1346 486.413 91.7421C484.655 94.3202 482.297 96.3563 479.338 97.8505C476.379 99.3153 473.068 100.048 469.406 100.048C465.715 100.048 462.492 99.4325 459.738 98.202C457.014 96.9716 454.743 95.2723 452.927 93.1044C451.11 90.9071 449.748 88.3583 448.84 85.4579C447.932 82.5282 447.478 79.3934 447.478 76.0536V74.7792C447.478 71.41 447.932 68.2753 448.84 65.3749C449.748 62.4452 451.11 59.8964 452.927 57.7284C454.743 55.5311 457.014 53.8173 459.738 52.5868C462.463 51.3563 465.656 50.7411 469.318 50.7411C473.215 50.7411 476.628 51.4882 479.558 52.9823C482.517 54.4764 484.831 56.6151 486.501 59.3983C488.2 62.1522 489.064 65.4188 489.094 69.1981H477.185C477.155 67.6161 476.818 66.1805 476.174 64.8915C475.559 63.6024 474.65 62.577 473.449 61.8153C472.277 61.0243 470.827 60.6288 469.099 60.6288C467.253 60.6288 465.744 61.0243 464.572 61.8153C463.4 62.577 462.492 63.6317 461.848 64.9794C461.203 66.2977 460.749 67.8065 460.485 69.5057C460.251 71.1757 460.134 72.9335 460.134 74.7792V76.0536C460.134 77.8993 460.251 79.6718 460.485 81.371C460.72 83.0702 461.159 84.579 461.804 85.8973C462.478 87.2157 463.4 88.2557 464.572 89.0175C465.744 89.7792 467.268 90.16 469.143 90.16ZM508.781 31.6688V99.1688H496.125V31.6688H508.781ZM506.979 73.7245H503.508C503.537 70.4139 503.977 67.3671 504.826 64.5839C505.676 61.7714 506.892 59.3397 508.474 57.2889C510.056 55.2089 511.945 53.5975 514.143 52.455C516.369 51.3124 518.83 50.7411 521.525 50.7411C523.869 50.7411 525.993 51.078 527.897 51.7518C529.831 52.3964 531.486 53.451 532.863 54.9159C534.27 56.3514 535.354 58.2411 536.115 60.5848C536.877 62.9286 537.258 65.7704 537.258 69.1102V99.1688H524.514V69.0223C524.514 66.913 524.206 65.2577 523.591 64.0565C523.005 62.826 522.141 61.9618 520.998 61.4637C519.885 60.9364 518.508 60.6727 516.867 60.6727C515.051 60.6727 513.498 61.0096 512.209 61.6835C510.949 62.3573 509.938 63.2948 509.177 64.496C508.415 65.6678 507.858 67.0448 507.507 68.6268C507.155 70.2089 506.979 71.9081 506.979 73.7245ZM572.546 88.4462V67.2645C572.546 65.7411 572.297 64.4374 571.799 63.3534C571.301 62.2401 570.524 61.3759 569.47 60.7606C568.444 60.1454 567.111 59.8378 565.471 59.8378C564.064 59.8378 562.849 60.0868 561.823 60.5848C560.798 61.0536 560.007 61.7421 559.45 62.6503C558.894 63.5292 558.615 64.5692 558.615 65.7704H545.959C545.959 63.7489 546.428 61.83 547.365 60.0135C548.303 58.1971 549.665 56.6005 551.452 55.2235C553.239 53.8173 555.363 52.7186 557.824 51.9276C560.314 51.1366 563.098 50.7411 566.174 50.7411C569.865 50.7411 573.146 51.3563 576.018 52.5868C578.889 53.8173 581.145 55.663 582.785 58.1239C584.455 60.5848 585.29 63.661 585.29 67.3524V87.6991C585.29 90.3065 585.451 92.4452 585.773 94.1151C586.096 95.7557 586.564 97.1913 587.18 98.4218V99.1688H574.392C573.776 97.8798 573.308 96.2684 572.985 94.3348C572.692 92.3719 572.546 90.4091 572.546 88.4462ZM574.216 70.2089L574.304 77.3719H567.229C565.559 77.3719 564.108 77.5624 562.878 77.9432C561.647 78.3241 560.637 78.8661 559.846 79.5692C559.055 80.243 558.469 81.0341 558.088 81.9423C557.736 82.8505 557.561 83.8466 557.561 84.9305C557.561 86.0145 557.81 86.996 558.308 87.8749C558.806 88.7245 559.523 89.3983 560.461 89.8964C561.398 90.3651 562.497 90.5995 563.757 90.5995C565.661 90.5995 567.316 90.2186 568.723 89.4569C570.129 88.6952 571.213 87.7577 571.975 86.6444C572.766 85.5311 573.176 84.4764 573.205 83.4803L576.545 88.8417C576.076 90.0428 575.432 91.288 574.611 92.577C573.82 93.8661 572.81 95.0819 571.579 96.2245C570.349 97.3378 568.869 98.2606 567.141 98.993C565.412 99.6962 563.361 100.048 560.988 100.048C557.971 100.048 555.231 99.4471 552.771 98.246C550.339 97.0155 548.405 95.3309 546.97 93.1923C545.563 91.0243 544.86 88.5634 544.86 85.8094C544.86 83.3192 545.329 81.1073 546.267 79.1737C547.204 77.2401 548.581 75.6141 550.397 74.2958C552.243 72.9481 554.543 71.9374 557.297 71.2635C560.051 70.5604 563.244 70.2089 566.877 70.2089H574.216ZM607.438 61.7714V99.1688H594.782V51.62H606.647L607.438 61.7714ZM605.593 73.7245H602.165C602.165 70.2089 602.619 67.0448 603.527 64.2323C604.436 61.3905 605.71 58.9735 607.351 56.9813C608.991 54.9598 610.939 53.4218 613.195 52.3671C615.48 51.2831 618.029 50.7411 620.842 50.7411C623.068 50.7411 625.104 51.0634 626.95 51.7079C628.796 52.3524 630.378 53.3778 631.696 54.7841C633.044 56.1903 634.069 58.0507 634.772 60.3651C635.505 62.6796 635.871 65.5067 635.871 68.8466V99.1688H623.127V68.8026C623.127 66.6932 622.834 65.0526 622.248 63.8807C621.662 62.7089 620.798 61.8885 619.655 61.4198C618.542 60.9218 617.165 60.6727 615.524 60.6727C613.825 60.6727 612.346 61.0096 611.086 61.6835C609.855 62.3573 608.83 63.2948 608.01 64.496C607.219 65.6678 606.618 67.0448 606.208 68.6268C605.798 70.2089 605.593 71.9081 605.593 73.7245ZM675.598 51.62H687.067V97.5868C687.067 101.923 686.101 105.599 684.167 108.617C682.263 111.664 679.597 113.964 676.169 115.516C672.741 117.099 668.757 117.89 664.216 117.89C662.224 117.89 660.114 117.626 657.888 117.099C655.69 116.571 653.581 115.751 651.56 114.638C649.567 113.524 647.897 112.118 646.55 110.419L652.131 102.948C653.596 104.647 655.295 105.966 657.229 106.903C659.162 107.87 661.301 108.353 663.645 108.353C665.93 108.353 667.863 107.929 669.445 107.079C671.027 106.259 672.243 105.043 673.093 103.432C673.942 101.849 674.367 99.9305 674.367 97.6747V62.6063L675.598 51.62ZM643.605 75.9657V75.0428C643.605 71.41 644.045 68.1141 644.924 65.1552C645.832 62.1669 647.106 59.6034 648.747 57.4647C650.417 55.326 652.438 53.6708 654.812 52.4989C657.185 51.327 659.865 50.7411 662.854 50.7411C666.018 50.7411 668.669 51.327 670.808 52.4989C672.946 53.6708 674.704 55.3407 676.081 57.5087C677.458 59.6473 678.527 62.1815 679.289 65.1112C680.08 68.0116 680.695 71.1903 681.135 74.6473V76.6688C680.695 79.9794 680.036 83.0555 679.157 85.8973C678.278 88.7391 677.121 91.2294 675.686 93.368C674.25 95.4774 672.463 97.118 670.324 98.2899C668.215 99.4618 665.695 100.048 662.766 100.048C659.836 100.048 657.185 99.4471 654.812 98.246C652.468 97.0448 650.461 95.3602 648.791 93.1923C647.121 91.0243 645.832 88.4755 644.924 85.5458C644.045 82.6161 643.605 79.4227 643.605 75.9657ZM656.262 75.0428V75.9657C656.262 77.9286 656.452 79.7596 656.833 81.4589C657.214 83.1581 657.8 84.6669 658.591 85.9852C659.411 87.2743 660.422 88.285 661.623 89.0175C662.854 89.7206 664.304 90.0721 665.974 90.0721C668.288 90.0721 670.178 89.5887 671.643 88.6219C673.107 87.6259 674.206 86.2635 674.938 84.535C675.671 82.8065 676.096 80.8143 676.213 78.5585V72.8016C676.154 70.9559 675.905 69.3007 675.466 67.8358C675.026 66.3417 674.411 65.0673 673.62 64.0126C672.829 62.9579 671.804 62.1376 670.544 61.5516C669.284 60.9657 667.79 60.6727 666.062 60.6727C664.392 60.6727 662.941 61.0536 661.711 61.8153C660.51 62.5477 659.499 63.5585 658.679 64.8475C657.888 66.1366 657.287 67.66 656.877 69.4178C656.467 71.1464 656.262 73.0214 656.262 75.0428ZM718.796 100.048C715.104 100.048 711.794 99.4618 708.864 98.2899C705.935 97.0887 703.444 95.4335 701.394 93.3241C699.372 91.2147 697.819 88.7684 696.735 85.9852C695.651 83.1727 695.109 80.1844 695.109 77.0204V75.2626C695.109 71.6591 695.622 68.3632 696.647 65.3749C697.673 62.3866 699.138 59.7938 701.042 57.5966C702.976 55.3993 705.319 53.7147 708.073 52.5428C710.827 51.3417 713.933 50.7411 717.39 50.7411C720.759 50.7411 723.747 51.2977 726.354 52.411C728.962 53.5243 731.145 55.1063 732.902 57.1571C734.689 59.2079 736.037 61.6688 736.945 64.5399C737.854 67.3817 738.308 70.5458 738.308 74.0321V79.3055H700.515V70.868H725.871V69.9012C725.871 68.1434 725.549 66.576 724.904 65.1991C724.289 63.7928 723.352 62.6796 722.092 61.8593C720.832 61.0389 719.221 60.6288 717.258 60.6288C715.588 60.6288 714.152 60.995 712.951 61.7274C711.75 62.4598 710.769 63.4852 710.007 64.8036C709.274 66.1219 708.718 67.6747 708.337 69.4618C707.985 71.2196 707.81 73.1532 707.81 75.2626V77.0204C707.81 78.9247 708.073 80.6825 708.601 82.2938C709.157 83.9052 709.934 85.2968 710.93 86.4686C711.955 87.6405 713.186 88.5487 714.621 89.1932C716.086 89.8378 717.741 90.16 719.587 90.16C721.872 90.16 723.996 89.7206 725.959 88.8417C727.951 87.9335 729.665 86.5712 731.101 84.7548L737.253 91.4344C736.257 92.87 734.895 94.2469 733.166 95.5653C731.467 96.8837 729.416 97.9677 727.014 98.8173C724.611 99.6376 721.872 100.048 718.796 100.048Z" fill="#B0A5BB"/>
<defs>
<radialGradient id="paint0_radial_33_222" cx="0" cy="0" r="1" gradientUnits="userSpaceOnUse" gradientTransform="translate(80.4228 70.3557) scale(68.2659)">
<stop stop-color="#D7C4E6"/>
<stop offset="0.347059" stop-color="#9264B9"/>
<stop offset="0.711765" stop-color="#5E2590"/>
<stop offset="1" stop-color="#28193D"/>
</radialGradient>
<radialGradient id="paint1_radial_33_222" cx="0" cy="0" r="1" gradientUnits="userSpaceOnUse" gradientTransform="translate(36.0678 32.5532) scale(62.9294 62.9294)">
<stop stop-color="#F9A72B"/>
<stop offset="0.341837" stop-color="#F68712"/>
<stop offset="0.739796" stop-color="#F14624"/>
<stop offset="1" stop-color="#BB351B"/>
</radialGradient>
<linearGradient id="paint2_linear_33_222" x1="241.04" y1="6.16882" x2="241.04" y2="99.1688" gradientUnits="userSpaceOnUse">
<stop stop-color="white"/>
<stop offset="1" stop-color="#BB351B"/>
</linearGradient>
</defs>
</svg>
