<svg width="200" height="200" viewBox="0 0 200 200" fill="none" xmlns="http://www.w3.org/2000/svg">
<rect width="200" height="200" fill="url(#paint0_linear_10_34)" fill-opacity="0.2"/>
<path d="M55.6089 67.7826H16.5652C10.1779 67.7826 5 72.9605 5 79.3478V166.913C5 173.3 10.1779 178.478 16.5652 178.478H137.174C143.561 178.478 148.739 173.3 148.739 166.913V98.3478C148.739 91.9605 143.561 86.7826 137.174 86.7826H72.5326L65.8625 73.9981C63.8693 70.178 59.9178 67.7826 55.6089 67.7826Z" fill="url(#paint1_linear_10_34)"/>
<path d="M69.6524 44.6522H37.8369C31.4496 44.6522 26.2717 49.8301 26.2717 56.2174L65.2993 56.2174C67.9679 56.2174 70.4153 57.7009 71.6497 60.0669L79.5543 75.2174H148.739C155.126 75.2174 160.304 80.3953 160.304 86.7826V157.413C166.692 157.413 171.87 152.235 171.87 145.848V75.2174C171.87 68.8301 166.692 63.6522 160.304 63.6522H86.5761L79.9059 50.8677C77.9128 47.0475 73.9612 44.6522 69.6524 44.6522Z" fill="url(#paint2_linear_10_34)"/>
<path d="M100.62 40.5217L93.9494 27.7373C91.9563 23.9171 88.0047 21.5217 83.6959 21.5217H58.9022C52.5149 21.5217 47.337 26.6996 47.337 33.0869L79.3428 33.0869C82.0115 33.0869 84.4588 34.5705 85.6933 36.9365L93.5979 52.0869H171.87C178.257 52.0869 183.435 57.2649 183.435 63.6521V136.141C189.822 136.141 195 130.963 195 124.576V52.0869C195 45.6996 189.822 40.5217 183.435 40.5217H100.62Z" fill="url(#paint3_linear_10_34)"/>
<defs>
<linearGradient id="paint0_linear_10_34" x1="100" y1="0" x2="100" y2="200" gradientUnits="userSpaceOnUse">
<stop stop-color="#57FFD9"/>
<stop offset="1" stop-color="#2A64FF"/>
</linearGradient>
<linearGradient id="paint1_linear_10_34" x1="-28.97" y1="16.64" x2="155.062" y2="218.322" gradientUnits="userSpaceOnUse">
<stop stop-color="#97E0FF"/>
<stop offset="1" stop-color="#1075FF"/>
</linearGradient>
<linearGradient id="paint2_linear_10_34" x1="17.576" y1="-25.834" x2="201.61" y2="175.848" gradientUnits="userSpaceOnUse">
<stop stop-color="#97E0FF"/>
<stop offset="1" stop-color="#1075FF"/>
</linearGradient>
<linearGradient id="paint3_linear_10_34" x1="41.15" y1="-47.346" x2="225.184" y2="154.336" gradientUnits="userSpaceOnUse">
<stop stop-color="#97E0FF"/>
<stop offset="1" stop-color="#1075FF"/>
</linearGradient>
</defs>
</svg>
