<svg width="200" height="200" viewBox="0 0 200 200" fill="none" xmlns="http://www.w3.org/2000/svg">
<path d="M186.789 28.7925L142.241 162.406C137.829 177.095 116.3 178.697 109.814 164.717L86.6646 118.42C86.6021 118.264 86.5083 118.139 86.4458 117.983L90.9757 113.453L127.745 76.6522C128.036 76.3633 128.267 76.0198 128.424 75.6416C128.582 75.2633 128.663 74.8577 128.664 74.4479C128.665 74.0381 128.584 73.6322 128.428 73.2535C128.271 72.8748 128.041 72.5308 127.752 72.241C127.462 71.9513 127.118 71.7215 126.739 71.565C126.36 71.4084 125.954 71.3282 125.545 71.3288C125.135 71.3294 124.729 71.4108 124.351 71.5685C123.973 71.7261 123.629 71.9568 123.34 72.2474C121.229 74.349 82.3824 113.174 82.0098 113.547C81.8536 113.484 81.7286 113.391 81.5723 113.328L35.2746 90.1792C21.3679 83.742 22.8447 62.155 37.5871 57.7519L171.2 13.2035C173.369 12.5082 175.688 12.424 177.902 12.9602C180.116 13.4963 182.139 14.6321 183.75 16.2428C185.361 17.8535 186.496 19.8768 187.033 22.0907C187.569 24.3046 187.484 26.6233 186.789 28.7925ZM85.021 164.262L67.1191 182.166C66.8284 182.456 66.5977 182.8 66.4402 183.179C66.2827 183.558 66.2015 183.965 66.2012 184.375C66.2009 184.786 66.2815 185.192 66.4385 185.572C66.5955 185.951 66.8257 186.296 67.116 186.586C67.4063 186.876 67.751 187.107 68.1304 187.264C68.5097 187.421 68.9163 187.501 69.3269 187.501C69.7374 187.501 70.1439 187.42 70.523 187.262C70.9022 187.105 71.2466 186.874 71.5365 186.583L89.4383 168.68C90.0062 168.09 90.3201 167.301 90.3125 166.483C90.3049 165.664 89.9764 164.882 89.3977 164.303C88.8189 163.724 88.0362 163.396 87.2177 163.388C86.3992 163.38 85.6105 163.694 85.021 164.262ZM58.1679 137.407L31.312 164.262C31.0219 164.552 30.7918 164.896 30.6348 165.275C30.4778 165.654 30.397 166.06 30.397 166.471C30.397 166.881 30.4778 167.287 30.6348 167.666C30.7917 168.045 31.0218 168.389 31.3119 168.679C31.6019 168.969 31.9462 169.2 32.3252 169.357C32.7042 169.514 33.1104 169.594 33.5206 169.594C33.9308 169.594 34.3369 169.514 34.7159 169.357C35.0949 169.2 35.4392 168.97 35.7293 168.679L62.5852 141.825C63.1519 141.235 63.4648 140.447 63.4567 139.629C63.4485 138.811 63.1201 138.029 62.5418 137.451C61.9635 136.873 61.1815 136.544 60.3638 136.536C59.546 136.528 58.7576 136.841 58.1679 137.407ZM31.3116 110.553L13.4099 128.456C13.1199 128.746 12.8898 129.091 12.7328 129.47C12.5758 129.849 12.495 130.255 12.495 130.665C12.495 131.075 12.5758 131.481 12.7327 131.86C12.8897 132.239 13.1198 132.584 13.4098 132.874C13.6999 133.164 14.0442 133.394 14.4232 133.551C14.8022 133.708 15.2083 133.789 15.6185 133.789C16.0287 133.789 16.4349 133.708 16.8139 133.551C17.1929 133.394 17.5372 133.164 17.8273 132.874L35.7291 114.97C36.2956 114.381 36.6084 113.592 36.6002 112.775C36.592 111.957 36.2635 111.175 35.6853 110.597C35.1071 110.018 34.3252 109.69 33.5075 109.682C32.6898 109.674 31.9013 109.986 31.3116 110.553Z" fill="url(#paint0_linear_10_33)"/>
<defs>
<linearGradient id="paint0_linear_10_33" x1="12.5" y1="100" x2="187.5" y2="100" gradientUnits="userSpaceOnUse">
<stop stop-color="#57FFD9"/>
<stop offset="1" stop-color="#2A64FF"/>
</linearGradient>
</defs>
</svg>
